<svg width="144" height="123" viewBox="0 0 144 123" fill="none" xmlns="http://www.w3.org/2000/svg">
<circle cx="32.5736" cy="31.3671" r="23.5717" fill="white"/>
<path d="M10.8239 39.7931C10.7596 40.2813 11.1034 40.733 11.5953 40.7569C13.452 40.8469 15.3011 40.456 16.9625 39.6222C17.4026 39.4013 17.5341 38.849 17.2777 38.4286V38.4286C17.0213 38.0082 16.4742 37.8797 16.0305 38.0934C14.722 38.7235 13.2803 39.0284 11.8287 38.9817C11.3365 38.9659 10.8882 39.3049 10.8239 39.7931V39.7931Z" fill="black"/>
<path d="M31.6327 29.292C31.4161 29.0213 31.4581 28.6199 31.7648 28.4582C32.0581 28.3036 32.3741 28.1934 32.7024 28.1323C33.2373 28.0327 33.7886 28.0666 34.3073 28.231C34.826 28.3954 35.2962 28.6851 35.6762 29.0746C36.0562 29.4641 36.3342 29.9413 36.4857 30.4639C36.6373 30.9865 36.6576 31.5384 36.5448 32.0707C36.4321 32.6031 36.1898 33.0994 35.8395 33.5157C35.4891 33.932 35.0415 34.2555 34.5362 34.4576C34.2261 34.5815 33.9002 34.6574 33.5697 34.6837C33.224 34.7111 32.9739 34.3945 33.0121 34.0499V34.0499C33.0504 33.7053 33.366 33.4667 33.7062 33.3994C33.8301 33.3749 33.9519 33.3389 34.0701 33.2917C34.3836 33.1663 34.6613 32.9656 34.8787 32.7072C35.0961 32.4489 35.2465 32.1409 35.3164 31.8106C35.3864 31.4803 35.3738 31.1378 35.2798 30.8135C35.1858 30.4892 35.0132 30.1931 34.7774 29.9514C34.5416 29.7098 34.2499 29.53 33.928 29.428C33.6061 29.326 33.2641 29.3049 32.9321 29.3667C32.807 29.39 32.6849 29.4248 32.5671 29.4703C32.2437 29.5954 31.8493 29.5627 31.6327 29.292V29.292Z" fill="black"/>
<path d="M63.9898 31.377C63.9898 48.706 49.9418 62.7539 32.6128 62.7539C15.2838 62.7539 1.23584 48.706 1.23584 31.377C1.23584 14.0479 15.2838 0 32.6128 0C49.9418 0 63.9898 14.0479 63.9898 31.377ZM10.5908 31.377C10.5908 43.5394 20.4504 53.399 32.6128 53.399C44.7753 53.399 54.6349 43.5394 54.6349 31.377C54.6349 19.2145 44.7753 9.35492 32.6128 9.35492C20.4504 9.35492 10.5908 19.2145 10.5908 31.377Z" fill="#117FA2"/>
<path d="M32.623 50.186C32.623 57.1271 38.466 62.9769 44.8577 60.2704C45.7258 59.9028 46.5788 59.4954 47.414 59.049C51.9647 56.6166 55.8453 53.0995 58.712 48.8091C61.5787 44.5187 63.3431 39.5876 63.8489 34.4525C64.3547 29.3173 63.5862 24.1367 61.6116 19.3695C59.6369 14.6023 56.5171 10.3957 52.5284 7.12225C48.5397 3.8488 43.8052 1.60957 38.7444 0.602904C33.6835 -0.403759 28.4526 -0.146779 23.5148 1.35108C22.6085 1.62599 21.7173 1.94114 20.8435 2.29505C14.4101 4.90085 14.4149 13.1689 19.323 18.077L26.0436 24.7976C27.24 25.994 29.1922 25.8957 30.8113 25.4046V25.4046C31.7935 25.1067 32.834 25.0555 33.8406 25.2558C34.8472 25.456 35.789 25.9014 36.5823 26.5525C37.3757 27.2036 37.9963 28.0404 38.3891 28.9886C38.7818 29.9368 38.9347 30.9673 38.8341 31.9887C38.7335 33.0101 38.3825 33.991 37.8123 34.8444C37.2421 35.6978 36.4702 36.3973 35.5651 36.8812V36.8812C34.0729 37.6787 32.623 38.9897 32.623 40.6817L32.623 50.186Z" fill="black"/>
<circle cx="19.7737" cy="30.2097" r="2.47171" fill="black"/>
<mask id="mask0_56_2" style="mask-type:alpha" maskUnits="userSpaceOnUse" x="1" y="0" width="63" height="61">
<path d="M59.3123 31.377C61.8956 31.377 64.0255 29.2714 63.6418 26.7167C63.012 22.5235 61.5361 18.4846 59.286 14.8525C56.2112 9.88932 51.8126 5.88243 46.5849 3.28256C41.3572 0.6827 35.5078 -0.40701 29.6946 0.135999C23.8814 0.679008 18.335 2.8332 13.6793 6.35627C9.02352 9.87935 5.4431 14.6316 3.3407 20.0784C1.23831 25.5252 0.697345 31.4506 1.77866 37.1881C2.85997 42.9256 5.52066 48.2476 9.46147 52.5555C12.3454 55.708 15.8311 58.226 19.6954 59.9716C22.0496 61.0352 24.6548 59.5577 25.3568 57.0716V57.0716C26.0589 54.5855 24.577 52.0426 22.2948 50.8323C20.0799 49.6576 18.0716 48.1079 16.364 46.2412C13.5981 43.2177 11.7307 39.4824 10.9717 35.4555C10.2128 31.4287 10.5925 27.2699 12.0681 23.447C13.5436 19.6241 16.0566 16.2888 19.3242 13.8161C22.5919 11.3434 26.4846 9.83149 30.5647 9.45037C34.6447 9.06926 38.7501 9.83408 42.4192 11.6588C46.0882 13.4835 49.1754 16.2958 51.3335 19.7792C52.6659 21.9299 53.6115 24.2838 54.14 26.7345C54.6846 29.2598 56.729 31.377 59.3123 31.377V31.377Z" fill="url(#paint0_angular_56_2)"/>
</mask>
<g mask="url(#mask0_56_2)">
<path fill-rule="evenodd" clip-rule="evenodd" d="M23.1356 -10.7797C31.6818 -11.2225 35.0053 0.66849 40.9382 6.83563C45.5574 11.6372 51.253 15.2409 54.0053 21.3086C57.0073 27.9272 58.3298 35.2044 57.0509 42.3585C55.6317 50.2976 53.4998 59.5028 46.4708 63.4569C39.4954 67.3808 30.9535 63.1501 23.1356 61.437C17.0471 60.1029 10.9685 58.6606 6.21003 54.6348C1.68875 50.8098 -0.60623 45.2783 -2.56888 39.6907C-4.5798 33.9657 -6.92884 27.9482 -5.20751 22.1295C-3.46628 16.2437 2.61914 13.2644 6.62472 8.61349C12.3041 2.01917 14.4444 -10.3294 23.1356 -10.7797Z" fill="#2CC990"/>
<path fill-rule="evenodd" clip-rule="evenodd" d="M54.6908 -16.4333C61.7292 -15.7938 68.349 -12.9636 73.7552 -8.41146C78.8831 -4.09363 82.0352 1.89527 84.051 8.28868C86.0512 14.6326 87.2111 21.4008 85.1486 27.7247C83.0875 34.0446 77.9857 38.5954 72.8073 42.7636C67.3651 47.1442 61.5197 50.7667 54.6908 52.2412C46.3879 54.034 35.7753 58.1121 29.8326 52.0428C23.6367 45.715 31.5365 34.6566 29.1282 26.1342C26.8867 18.2023 15.8579 13.6778 16.6734 5.47575C17.4833 -2.67025 25.839 -8.03312 32.9316 -12.1206C39.4988 -15.9052 47.1423 -17.1191 54.6908 -16.4333Z" fill="#00A3B8" fill-opacity="0.75"/>
<path fill-rule="evenodd" clip-rule="evenodd" d="M40.9615 0.58995C48.1451 0.365297 55.506 -0.155306 61.8234 3.27166C68.6892 6.99607 75.4396 12.6052 77.1574 20.2249C78.8386 27.6819 72.5494 34.217 70.4574 41.5694C68.2458 49.3426 70.7602 59.2838 64.567 64.4758C58.3674 69.673 48.7687 68.4163 40.9615 66.2964C34.3055 64.4892 31.0355 57.34 25.135 53.769C18.3445 49.6593 7.67798 51.0428 4.07337 43.9713C0.513425 36.9874 5.58887 28.6998 8.6856 21.4985C11.5159 14.9168 15.0135 8.44281 21.0266 4.54751C26.8551 0.771765 34.0203 0.807025 40.9615 0.58995Z" fill="#117FA2" fill-opacity="0.5"/>
</g>
<path d="M14.0625 92.7324C17.0156 92.7324 18.8848 94.0508 19.6699 96.6875C20.8418 94.8008 22.3945 93.5703 24.3281 92.9961C24.9844 92.8086 25.8105 92.7148 26.8066 92.7148C27.8027 92.7148 28.7637 92.9609 29.6895 93.4531C30.627 93.9453 31.3184 94.5898 31.7637 95.3867C32.2207 96.1719 32.5078 97.0391 32.625 97.9883C32.7539 98.9375 32.8184 99.957 32.8184 101.047V111.84C32.8184 112.168 32.7129 112.443 32.502 112.666C32.291 112.889 31.9805 113 31.5703 113H29.8477C29.4023 113 29.0742 112.889 28.8633 112.666C28.6523 112.443 28.5469 112.168 28.5469 111.84V100.889C28.5469 99.377 28.2832 98.252 27.7559 97.5137C27.2402 96.7754 26.4199 96.4062 25.2949 96.4062C24.0176 96.4062 22.8984 96.9688 21.9375 98.0938C20.9062 99.2656 20.3906 100.719 20.3906 102.453V111.84C20.3906 112.168 20.2852 112.443 20.0742 112.666C19.8633 112.889 19.5527 113 19.1426 113H17.4199C16.9746 113 16.6465 112.889 16.4355 112.666C16.2246 112.443 16.1191 112.168 16.1191 111.84V100.889C16.1191 99.377 15.8555 98.252 15.3281 97.5137C14.8125 96.7754 13.9922 96.4062 12.8672 96.4062C11.5898 96.4062 10.4648 96.9688 9.49219 98.0938C8.47266 99.2656 7.96289 100.719 7.96289 102.453V111.84C7.96289 112.168 7.86328 112.443 7.66406 112.666C7.46484 112.889 7.16016 113 6.75 113H4.93945C4.5293 113 4.21875 112.889 4.00781 112.666C3.79688 112.443 3.69141 112.168 3.69141 111.84V101.047C3.69141 98.6914 3.61523 97.0508 3.46289 96.125C3.31055 95.1875 3.23438 94.625 3.23438 94.4375C3.23438 93.5938 3.63867 93.1719 4.44727 93.1719H5.41406C6.07031 93.1719 6.51562 93.418 6.75 93.9102C7.03125 94.5078 7.30078 95.4336 7.55859 96.6875C8.57812 94.8477 10.0547 93.6289 11.9883 93.0312C12.6445 92.832 13.3359 92.7324 14.0625 92.7324ZM39.9407 113C39.2376 113 38.886 112.549 38.886 111.646V82.9766C38.886 82.6602 38.9739 82.3906 39.1497 82.168C39.3255 81.9453 39.5482 81.834 39.8177 81.834H42.2083C42.4778 81.834 42.7005 81.9453 42.8763 82.168C43.0638 82.3906 43.1575 82.6602 43.1575 82.9766V95.8262C44.6575 93.7637 46.8021 92.7324 49.5911 92.7324C52.1458 92.7324 54.1028 93.6758 55.4622 95.5625C56.6927 97.2734 57.3079 99.5527 57.3079 102.4C57.3079 105.729 56.5052 108.406 54.8997 110.434C53.3177 112.426 51.3138 113.422 48.888 113.422C47.5755 113.422 46.3568 113.129 45.2318 112.543C44.1185 111.945 43.2161 111.037 42.5247 109.818C42.5013 110.182 42.4661 110.539 42.4193 110.891C42.3841 111.242 42.3607 111.582 42.3489 111.91C42.3021 112.637 41.8275 113 40.9251 113H39.9407ZM44.388 98.3574C43.9075 98.9551 43.5384 99.6582 43.2806 100.467C43.0228 101.264 42.8939 102.102 42.8939 102.98C42.8939 103.848 43.0228 104.691 43.2806 105.512C43.5384 106.32 43.8958 107.047 44.3528 107.691C45.3607 109.098 46.6087 109.801 48.097 109.801C49.761 109.801 51.0091 109.074 51.8411 107.621C52.5208 106.414 52.8607 104.855 52.8607 102.945C52.8607 99.793 52.0521 97.7656 50.4349 96.8633C49.8724 96.5469 49.1868 96.3887 48.3782 96.3887C47.5696 96.3887 46.8255 96.5645 46.1458 96.916C45.4661 97.2676 44.8802 97.748 44.388 98.3574ZM77.8951 112.068C77.8951 112.689 77.5905 113 76.9811 113H75.276C74.819 113 74.5436 112.912 74.4498 112.736C74.3561 112.549 74.3033 112.385 74.2916 112.244C74.2799 112.092 74.2565 111.91 74.2213 111.699C74.151 111.125 74.0514 110.504 73.9225 109.836C73.0084 111.512 71.5729 112.619 69.6158 113.158C68.9244 113.346 68.1627 113.439 67.3307 113.439C66.4987 113.439 65.6666 113.299 64.8346 113.018C64.0026 112.748 63.2643 112.344 62.6198 111.805C61.1666 110.586 60.4401 108.986 60.4401 107.006C60.4401 104.838 61.2369 103.18 62.8307 102.031C64.1432 101.105 65.8307 100.643 67.8932 100.643C69.9557 100.643 71.7018 101.246 73.1315 102.453C73.1666 102.055 73.1842 101.557 73.1842 100.959C73.1842 100.361 73.067 99.7637 72.8326 99.166C72.5983 98.5684 72.2643 98.0703 71.8307 97.6719C70.9401 96.8867 69.6979 96.4941 68.1041 96.4941C66.6744 96.4941 65.2213 96.8867 63.7448 97.6719C63.4635 97.8242 63.2174 97.9004 63.0065 97.9004C62.6901 97.9004 62.3854 97.5898 62.0924 96.9688C61.776 96.3359 61.6178 95.8789 61.6178 95.5977C61.6178 95.082 62.0045 94.584 62.778 94.1035C64.2545 93.1895 66.2291 92.7324 68.7018 92.7324C70.9518 92.7324 72.8151 93.3477 74.2916 94.5781C76.0377 96.0547 76.9108 98.1406 76.9108 100.836C76.9108 102.031 76.7174 103.537 76.3307 105.354C77.3268 108.189 77.8483 110.428 77.8951 112.068ZM66.1178 104.615C65.6373 104.967 65.2916 105.318 65.0807 105.67C64.8815 106.021 64.7819 106.438 64.7819 106.918C64.7819 107.387 64.8639 107.809 65.028 108.184C65.2037 108.547 65.444 108.852 65.7487 109.098C66.3932 109.602 67.1139 109.854 67.9108 109.854C68.7194 109.854 69.3815 109.76 69.8971 109.572C70.4127 109.385 70.858 109.145 71.233 108.852C72.0416 108.219 72.4459 107.551 72.4459 106.848C72.3756 105.969 71.8893 105.277 70.9869 104.773C70.1783 104.305 69.2233 104.07 68.1217 104.07C67.2662 104.07 66.5983 104.252 66.1178 104.615ZM97.1464 109.414L98.623 109.133C99.0331 109.133 99.291 109.408 99.3964 109.959L99.6425 111.225C99.6542 111.283 99.6601 111.412 99.6601 111.611C99.6601 111.799 99.5839 112.004 99.4316 112.227C99.291 112.449 99.0976 112.637 98.8515 112.789C98.3124 113.129 97.6269 113.299 96.7949 113.299C95.1425 113.299 93.7656 112.496 92.664 110.891C92.4648 110.621 92.2421 110.27 91.996 109.836L89.5703 105.547L88.5156 106.988C87.0742 109.016 86.207 110.639 85.914 111.857C85.832 112.174 85.7148 112.443 85.5624 112.666C85.4218 112.889 85.1699 113 84.8066 113H83.4003C83.1425 113 82.9199 112.895 82.7324 112.684C82.5566 112.461 82.4687 112.186 82.4687 111.857V82.9414C82.4687 82.625 82.5566 82.3613 82.7324 82.1504C82.9199 81.9395 83.1425 81.834 83.4003 81.834H85.8261C86.0956 81.834 86.3183 81.9395 86.4941 82.1504C86.6699 82.3613 86.7578 82.625 86.7578 82.9414L86.8105 97.7598C86.8105 99.0488 86.705 100.543 86.4941 102.242C86.2949 103.941 86.166 105.055 86.1074 105.582V105.652C86.1074 105.746 86.1308 105.793 86.1777 105.793C86.2831 105.793 86.4238 105.641 86.5995 105.336C88.9316 101.105 91.8554 97.0684 95.371 93.2246C95.7109 92.8613 96.0273 92.6797 96.3203 92.6797C96.7656 92.6797 97.164 92.8672 97.5156 93.2422L98.3066 94.1211C98.6933 94.5898 98.8867 94.9355 98.8867 95.1582C98.9101 95.5566 98.7578 95.9082 98.4296 96.2129L95.2656 99.3242C94.1874 100.426 93.162 101.58 92.1894 102.787L93.5078 105.055C95.1718 107.961 96.3847 109.414 97.1464 109.414ZM117.558 109.414L119.034 109.133C119.445 109.133 119.702 109.408 119.808 109.959L120.054 111.225C120.066 111.283 120.072 111.412 120.072 111.611C120.072 111.799 119.995 112.004 119.843 112.227C119.702 112.449 119.509 112.637 119.263 112.789C118.724 113.129 118.038 113.299 117.206 113.299C115.554 113.299 114.177 112.496 113.075 110.891C112.876 110.621 112.654 110.27 112.407 109.836L109.982 105.547L108.927 106.988C107.486 109.016 106.618 110.639 106.325 111.857C106.243 112.174 106.126 112.443 105.974 112.666C105.833 112.889 105.581 113 105.218 113H103.812C103.554 113 103.331 112.895 103.144 112.684C102.968 112.461 102.88 112.186 102.88 111.857V82.9414C102.88 82.625 102.968 82.3613 103.144 82.1504C103.331 81.9395 103.554 81.834 103.812 81.834H106.238C106.507 81.834 106.73 81.9395 106.906 82.1504C107.081 82.3613 107.169 82.625 107.169 82.9414L107.222 97.7598C107.222 99.0488 107.116 100.543 106.906 102.242C106.706 103.941 106.577 105.055 106.519 105.582V105.652C106.519 105.746 106.542 105.793 106.589 105.793C106.695 105.793 106.835 105.641 107.011 105.336C109.343 101.105 112.267 97.0684 115.782 93.2246C116.122 92.8613 116.439 92.6797 116.732 92.6797C117.177 92.6797 117.575 92.8672 117.927 93.2422L118.718 94.1211C119.105 94.5898 119.298 94.9355 119.298 95.1582C119.322 95.5566 119.169 95.9082 118.841 96.2129L115.677 99.3242C114.599 100.426 113.573 101.58 112.601 102.787L113.919 105.055C115.583 107.961 116.796 109.414 117.558 109.414ZM140.958 111.805C140.958 112.602 140.594 113 139.868 113H139.077C138.374 113 137.911 112.719 137.688 112.156C137.442 111.512 137.178 110.615 136.897 109.467C136.405 110.697 135.567 111.67 134.383 112.385C133.211 113.088 131.747 113.439 129.989 113.439C127.692 113.439 125.999 112.725 124.909 111.295C123.819 109.854 123.274 107.732 123.274 104.932V94.332C123.274 94.0039 123.374 93.7285 123.573 93.5059C123.784 93.2832 124.077 93.1719 124.452 93.1719H126.385C127.159 93.1719 127.545 93.5586 127.545 94.332V104.738C127.545 107.539 128.196 109.156 129.497 109.59C129.919 109.73 130.417 109.801 130.991 109.801C131.577 109.801 132.174 109.666 132.784 109.396C133.405 109.127 133.961 108.77 134.454 108.324C135.555 107.305 136.106 106.139 136.106 104.826V94.332C136.106 94.0039 136.206 93.7285 136.405 93.5059C136.604 93.2832 136.92 93.1719 137.354 93.1719H139.2C139.61 93.1719 139.909 93.2832 140.096 93.5059C140.284 93.7285 140.378 94.0039 140.378 94.332V105.318C140.378 107.791 140.553 109.783 140.905 111.295C140.94 111.424 140.958 111.594 140.958 111.805Z" fill="white"/>
<defs>
<radialGradient id="paint0_angular_56_2" cx="0" cy="0" r="1" gradientUnits="userSpaceOnUse" gradientTransform="translate(25.8843 67.4227) rotate(-96.5105) scale(84.169 99.2195)">
<stop offset="0.042232" stop-color="#29C693"/>
<stop offset="0.120367" stop-color="#2CC990"/>
<stop offset="0.920141" stop-color="#00A3B8"/>
</radialGradient>
</defs>
</svg>
